<svg viewBox="0 0 24 24" fill="none" xmlns="http://www.w3.org/2000/svg">

    <symbol id="icon-cart">
        <svg width="24" height="24" viewBox="0 0 24 24" fill="none" xmlns="http://www.w3.org/2000/svg">
            <path fill-rule="evenodd" clip-rule="evenodd" d="M7 18C5.9 18 5.01 18.9 5.01 20C5.01 21.1 5.9 22 7 22C8.1 22 9 21.1 9 20C9 18.9 8.1 18 7 18ZM1 3C1 3.55 1.45 4 2 4H3L6.6 11.59L5.25 14.03C4.52 15.37 5.48 17 7 17H18C18.55 17 19 16.55 19 16C19 15.45 18.55 15 18 15H7L8.1 13H15.55C16.3 13 16.96 12.59 17.3 11.97L20.88 5.48C21.25 4.82 20.77 4 20.01 4H5.21L4.54 2.57C4.38 2.22 4.02 2 3.64 2H2C1.45 2 1 2.45 1 3ZM17 18C15.9 18 15.01 18.9 15.01 20C15.01 21.1 15.9 22 17 22C18.1 22 19 21.1 19 20C19 18.9 18.1 18 17 18Z" fill="#18214D"/>
        </svg>

    </symbol>

    <symbol id="icon-stars">
        <svg width="24" height="24" viewBox="0 0 24 24" fill="none" xmlns="http://www.w3.org/2000/svg">
            <path fill-rule="evenodd" clip-rule="evenodd" d="M11.99 2C6.47 2 2 6.48 2 12C2 17.52 6.47 22 11.99 22C17.52 22 22 17.52 22 12C22 6.48 17.52 2 11.99 2ZM15.22 17.39L12 15.45L8.78 17.39C8.4 17.62 7.93 17.28 8.03 16.85L8.88 13.19L6.05 10.74C5.72 10.45 5.9 9.9 6.34 9.86L10.08 9.54L11.54 6.09C11.71 5.68 12.29 5.68 12.46 6.09L13.92 9.53L17.66 9.85C18.1 9.89 18.28 10.44 17.94 10.73L15.11 13.18L15.96 16.85C16.06 17.28 15.6 17.62 15.22 17.39Z" fill="#18214D"/>
        </svg>

    </symbol>


</svg>